<?xml version="1.0" ?><!DOCTYPE svg  PUBLIC '-//W3C//DTD SVG 1.1//EN'  'http://www.w3.org/Graphics/SVG/1.1/DTD/svg11.dtd'><svg height="100%" style="fill-rule:evenodd;clip-rule:evenodd;stroke-linejoin:round;stroke-miterlimit:2;" version="1.1" viewBox="0 0 32 32" width="100%" xml:space="preserve" xmlns="http://www.w3.org/2000/svg" xmlns:serif="http://www.serif.com/" xmlns:xlink="http://www.w3.org/1999/xlink"><path d="M4.988,7.011l-1,-0c-0.552,-0 -1,0.448 -1,1c-0,0.552 0.448,1 1,1l1,-0l-0,6l-1,-0c-0.552,-0 -1,0.448 -1,1c-0,0.552 0.448,1 1,1l1,-0l-0,6l-0.668,-0c-0.552,-0 -1,0.448 -1,1c-0,0.552 0.448,1 1,1l0.668,-0l-0,3c-0,1.657 1.343,3 3,3l16.012,-0c1.657,-0 3,-1.343 3,-3c0,-5.155 0,-18.848 0,-24.003c0,-1.657 -1.343,-3 -3,-3l-16.012,-0c-1.657,-0 -3,1.343 -3,3l-0,3.003Zm6.012,-4.003l-3.012,-0c-0.553,-0 -1,0.448 -1,1l-0,3.003l1,-0c0.552,-0 1,0.448 1,1c-0,0.552 -0.448,1 -1,1l-1,-0l-0,6l1,-0c0.552,-0 1,0.448 1,1c-0,0.552 -0.448,1 -1,1l-1,-0l-0,6l0.999,-0c0.552,-0 1,0.448 1,1c-0,0.552 -0.448,1 -1,1l-0.999,-0l-0,3c-0,0.552 0.447,1 1,1l3.012,-0l-0,-26.003Zm2,-0l11,-0c0.552,-0 1,0.448 1,1c0,5.155 0,18.848 0,24.003c0,0.552 -0.448,1 -1,1l-11,-0l-0,-26.003Z"/><path d="M16,9.011l6,-0c0.552,-0 1,-0.448 1,-1c0,-0.552 -0.448,-1 -1,-1l-6,-0c-0.552,-0 -1,0.448 -1,1c0,0.552 0.448,1 1,1Z"/><path d="M16,13l6,0c0.552,-0 1,-0.448 1,-1c-0,-0.552 -0.448,-1 -1,-1l-6,0c-0.552,-0 -1,0.448 -1,1c-0,0.552 0.448,1 1,1Z"/><g id="Icon"/></svg>